<?xml version="1.0" encoding="UTF-8" standalone="no"?>
<svg
   version="1.1"
   width="531.89032"
   height="358.21274"
   style="clip-rule:evenodd;fill-rule:evenodd;image-rendering:optimizeQuality;shape-rendering:geometricPrecision;text-rendering:geometricPrecision"
   id="svg41"
   sodipodi:docname="rekkerjegferga.svg"
   inkscape:version="1.4.3 (0d15f75, 2025-12-25)"
   xmlns:inkscape="http://www.inkscape.org/namespaces/inkscape"
   xmlns:sodipodi="http://sodipodi.sourceforge.net/DTD/sodipodi-0.dtd"
   xmlns="http://www.w3.org/2000/svg"
   xmlns:svg="http://www.w3.org/2000/svg">
  <defs
     id="defs41" />
  <sodipodi:namedview
     id="namedview41"
     pagecolor="#ffffff"
     bordercolor="#000000"
     borderopacity="0.25"
     inkscape:showpageshadow="2"
     inkscape:pageopacity="0.0"
     inkscape:pagecheckerboard="0"
     inkscape:deskcolor="#d1d1d1"
     showborder="true"
     inkscape:zoom="0.39447696"
     inkscape:cx="207.87019"
     inkscape:cy="-84.922577"
     inkscape:window-width="1440"
     inkscape:window-height="842"
     inkscape:window-x="0"
     inkscape:window-y="30"
     inkscape:window-maximized="1"
     inkscape:current-layer="svg41" />
  <g
     id="g8"
     transform="translate(-438.50667,-204.32065)">
    <path
       style="opacity:1"
       fill="#202020"
       d="m 717.5,204.5 c 8.948,-0.661 17.614,0.505 26,3.5 0.833,0.833 1.667,1.667 2.5,2.5 0.217,5.053 0.717,10.053 1.5,15 -0.333,0.333 -0.667,0.667 -1,1 -9.984,-3.836 -20.317,-5.002 -31,-3.5 -2.908,0.689 -5.575,1.855 -8,3.5 -0.333,-0.833 -0.667,-1.667 -1,-2.5 0.529,-4.85 1.196,-9.683 2,-14.5 2.933,-1.962 5.933,-3.629 9,-5 z"
       id="path8" />
  </g>
  <g
     id="g10"
     transform="translate(-438.50667,-204.32065)">
    <path
       style="opacity:1"
       fill="#1f1e1e"
       d="m 589.5,233.5 c 21.359,-0.829 42.359,1.505 63,7 -0.342,0.838 -1.008,1.172 -2,1 -19.628,-3.74 -39.295,-3.907 -59,-0.5 -57.088,13.26 -94.422,47.76 -112,103.5 -9.666,34.402 -7.166,68.069 7.5,101 6.102,11.887 12.935,23.22 20.5,34 -32.34,-29.605 -48.673,-66.605 -49,-111 5.017,-68.179 40.351,-111.679 106,-130.5 8.456,-1.591 16.789,-3.091 25,-4.5 z"
       id="path10" />
  </g>
  <g
     id="g11"
     transform="translate(-438.50667,-204.32065)">
    <path
       style="opacity:1"
       fill="#818281"
       d="m 682.5,283.5 c 3.125,-0.979 6.458,-1.313 10,-1 0.302,2.559 -0.032,4.893 -1,7 0,-2 0,-4 0,-6 -3,0 -6,0 -9,0 z"
       id="path11" />
  </g>
  <g
     id="g12"
     transform="translate(-438.50667,-204.32065)">
    <path
       style="opacity:1"
       fill="#1f1f1f"
       d="m 681.5,297.5 c 3.333,0 6.667,0 10,0 0,20 0,40 0,60 -29.327,-1.466 -58.661,-2.8 -88,-4 -3.125,-0.979 -6.458,-1.313 -10,-1 -0.268,1.599 0.066,2.932 1,4 1.308,9.957 3.808,19.624 7.5,29 10.462,8.125 19.129,17.792 26,29 5,10.667 10,21.333 15,32 3.414,4.752 7.914,7.919 13.5,9.5 11.625,1.194 23.292,1.861 35,2 0.923,2.041 1.256,4.208 1,6.5 -11.664,-0.485 -23.33,-0.985 -35,-1.5 -6.639,-1.735 -12.472,-4.902 -17.5,-9.5 -7.476,-14.756 -15.142,-29.423 -23,-44 -2,-2.667 -4,-5.333 -6,-8 -5.464,-4.221 -10.464,-8.888 -15,-14 -6.444,-17.448 -9.444,-35.448 -9,-54 2.128,-3.13 4.628,-5.963 7.5,-8.5 26.125,-18.096 55.125,-27.263 87,-27.5 z"
       id="path12" />
  </g>
  <g
     id="g13"
     transform="translate(-438.50667,-204.32065)">
    <path
       style="opacity:1"
       fill="#2d2c2d"
       d="m 704.5,264.5 c -0.333,78.168 10e-4,156.168 1,234 0,0.667 -0.333,1 -1,1 -0.999,-77.832 -1.333,-155.832 -1,-234 0,-0.667 0.333,-1 1,-1 z"
       id="path13" />
  </g>
  <g
     id="g14"
     transform="translate(-438.50667,-204.32065)">
    <path
       style="opacity:1"
       fill="#868686"
       d="m 681.5,297.5 c 3.462,-0.982 7.129,-1.315 11,-1 0.33,20.507 -0.003,40.84 -1,61 0,-20 0,-40 0,-60 -3.333,0 -6.667,0 -10,0 z"
       id="path14" />
  </g>
  <g
     id="g15"
     style="display:inline"
     transform="translate(-438.50667,-204.32065)">
    <path
       style="opacity:1"
       fill="#656565"
       d="m 603.5,353.5 c -3,0 -6,0 -9,0 0,1 0,2 0,3 -0.934,-1.068 -1.268,-2.401 -1,-4 3.542,-0.313 6.875,0.021 10,1 z"
       id="path15" />
  </g>
  <g
     id="g16"
     style="display:inline"
     transform="translate(-438.50667,-204.32065)">
    <path
       style="opacity:1"
       fill="#1f1e1f"
       d="m 837.5,299.5 c 0.281,5.065 -0.052,10.065 -1,15 -1.165,1.084 -2.498,1.917 -4,2.5 -4.077,0.515 -8.077,1.349 -12,2.5 -1.064,6.376 -0.731,12.709 1,19 33.224,-11.037 67.224,-18.537 102,-22.5 9.131,-0.993 18.131,-0.326 27,2 4.361,2.226 5.861,5.726 4.5,10.5 -8.612,12.945 -17.612,25.611 -27,38 -16.564,24.29 -30.397,50.124 -41.5,77.5 -21.562,6.697 -42.395,15.197 -62.5,25.5 -1.49,-0.817 -2.99,-1.65 -4.5,-2.5 -21.077,-1.679 -41.41,1.154 -61,8.5 -18.508,5.754 -36.174,13.421 -53,23 -0.999,-77.832 -1.333,-155.832 -1,-234 -0.219,-10.062 0.448,-20.062 2,-30 13.475,-6.514 26.975,-6.514 40.5,0 1.554,10.227 2.387,20.56 2.5,31 16.003,-0.167 32.003,0 48,0.5 0.984,8.749 1.317,17.582 1,26.5 11.671,-0.167 23.338,0 35,0.5 2.722,1.272 4.056,3.439 4,6.5 z"
       id="path16" />
  </g>
  <g
     id="g17"
     style="display:inline"
     transform="translate(-438.50667,-204.32065)">
    <path
       style="opacity:1"
       fill="#eff0ef"
       d="m 870.5,430.5 c -0.838,-0.342 -1.172,-1.008 -1,-2 5.119,-27.022 13.452,-53.022 25,-78 -58.977,8.165 -115.977,23.998 -171,47.5 -1,0.667 -2,0.667 -3,0 49.929,-25.865 102.262,-45.198 157,-58 13.892,-3.047 27.892,-5.047 42,-6 -20.939,29.71 -37.273,61.877 -49,96.5 z"
       id="path17" />
  </g>
  <g
     id="g18"
     style="display:inline"
     transform="translate(-438.50667,-204.32065)">
    <path
       style="opacity:1"
       fill="#d4d3d4"
       d="m 717.5,308.5 c -0.99,24.259 -1.323,48.592 -1,73 -0.667,-11.995 -1,-24.162 -1,-36.5 10e-4,-12.519 0.668,-24.686 2,-36.5 z"
       id="path18" />
  </g>
  <g
     id="g19"
     transform="translate(-438.50667,-204.32065)">
    <path
       style="opacity:1"
       fill="#f8f8f8"
       d="m 732.5,303.5 c 31.333,0 62.667,0 94,0 0,1.333 0,2.667 0,4 -5.838,1.4 -11.671,2.734 -17.5,4 -0.013,10.388 0.82,20.721 2.5,31 -32.686,10.509 -64.353,23.509 -95,39 -0.323,-24.408 0.01,-48.741 1,-73 4.933,-1.867 9.933,-3.533 15,-5 z"
       id="path19" />
  </g>
  <g
     id="g20"
     transform="translate(-438.50667,-204.32065)">
    <path
       style="opacity:1"
       fill="#909090"
       d="m 732.5,303.5 c 31.496,-0.998 63.162,-1.332 95,-1 0.284,1.915 -0.049,3.581 -1,5 0,-1.333 0,-2.667 0,-4 -31.333,0 -62.667,0 -94,0 z"
       id="path20" />
  </g>
  <g
     id="g21"
     transform="translate(-438.50667,-204.32065)">
    <path
       style="opacity:1"
       fill="#bcbcbc"
       d="m 786.5,276.5 c 0.988,5.14 1.321,10.474 1,16 -15.842,0.33 -31.509,-0.004 -47,-1 15.333,0 30.667,0 46,0 0,-5 0,-10 0,-15 z"
       id="path21" />
  </g>
  <g
     id="g22"
     transform="translate(-438.50667,-204.32065)">
    <path
       style="opacity:1"
       fill="#bcbcbc"
       d="m 731.5,278.5 c 0.986,4.47 1.319,9.137 1,14 -6,0 -12,0 -18,0 -0.306,-2.885 0.027,-5.552 1,-8 0,2.333 0,4.667 0,7 5.333,0 10.667,0 16,0 0,-4.333 0,-8.667 0,-13 z"
       id="path22" />
  </g>
  <g
     id="g23"
     transform="translate(-438.50667,-204.32065)">
    <path
       style="opacity:1"
       fill="#f5f5f4"
       d="m 731.5,278.5 c 0,4.333 0,8.667 0,13 -5.333,0 -10.667,0 -16,0 0,-2.333 0,-4.667 0,-7 5.047,-2.513 10.38,-4.513 16,-6 z"
       id="path23" />
  </g>
  <g
     id="g24"
     style="display:inline"
     transform="translate(-438.50667,-204.32065)">
    <path
       style="opacity:1"
       fill="#f7f8f7"
       d="m 786.5,276.5 c 0,5 0,10 0,15 -15.333,0 -30.667,0 -46,0 0,-5 0,-10 0,-15 15.333,0 30.667,0 46,0 z"
       id="path24" />
  </g>
  <g
     id="g25"
     transform="translate(-438.50667,-204.32065)">
    <path
       style="opacity:1"
       fill="#262425"
       d="m 607.5,368.5 c 9.023,0.035 18.023,0.535 27,1.5 3.544,1.253 3.877,3.087 1,5.5 -1.94,0.595 -3.94,0.928 -6,1 -6.326,-0.595 -12.659,-1.095 -19,-1.5 -2.645,-1.287 -3.645,-3.453 -3,-6.5 z"
       id="path25" />
  </g>
  <g
     id="g27"
     style="display:inline"
     transform="translate(-438.50667,-204.32065)">
    <path
       style="opacity:1"
       fill="#211f20"
       d="m 682.5,283.5 c 3,0 6,0 9,0 0,2 0,4 0,6 -27.807,0.288 -54.807,5.454 -81,15.5 -21.597,9.795 -42.264,21.129 -62,34 -12.264,2.576 -24.598,4.909 -37,7 -2.018,3.583 -3.352,7.417 -4,11.5 7.951,1.266 15.951,2.099 24,2.5 4.163,1.816 4.997,4.649 2.5,8.5 -5.405,5.282 -10.905,10.449 -16.5,15.5 -5.061,2.259 -10.395,3.092 -16,2.5 -0.43,5.315 -1.93,10.315 -4.5,15 -0.667,8 -0.667,16 0,24 1.497,3.665 3.497,6.998 6,10 1.347,6.098 4.181,11.264 8.5,15.5 10.021,4.254 20.354,7.421 31,9.5 -3.221,-18.647 0.612,-35.647 11.5,-51 18.442,-16.183 36.442,-15.516 54,2 12.507,18.705 18.007,39.372 16.5,62 22.667,0.333 45.333,0.667 68,1 0,2.667 0,5.333 0,8 -19.994,-0.903 -39.994,-1.07 -60,-0.5 -1.961,3.421 -3.794,6.921 -5.5,10.5 -5.209,8.188 -12.709,12.688 -22.5,13.5 -9.333,0.667 -18.667,0.667 -28,0 -6.591,-2.109 -12.258,-5.609 -17,-10.5 -4.869,-7.577 -8.536,-15.743 -11,-24.5 -15.155,-3.607 -29.822,-8.607 -44,-15 -0.833,-0.833 -1.667,-1.667 -2.5,-2.5 -3.198,-8.73 -7.198,-17.063 -12,-25 -1.234,-9.309 -1.567,-18.642 -1,-28 1.333,-2.667 2.667,-5.333 4,-8 1.141,-8.957 1.808,-17.957 2,-27 4.441,-7.159 7.607,-14.826 9.5,-23 2.149,-2.246 4.816,-3.746 8,-4.5 10.414,-1.187 20.747,-2.854 31,-5 13.831,-7.748 27.498,-15.748 41,-24 30.614,-16.422 63.281,-24.922 98,-25.5 z"
       id="path27" />
  </g>
  <g
     id="g28"
     style="display:inline"
     transform="translate(-438.50667,-204.32065)">
    <path
       style="opacity:1"
       fill="#dddcdc"
       d="m 576.5,407.5 c 17.064,0.231 27.898,8.564 32.5,25 -3.725,-8.392 -9.559,-14.892 -17.5,-19.5 -3.59,-1.893 -7.423,-2.727 -11.5,-2.5 -4.762,0.048 -9.262,0.881 -13.5,2.5 3.267,-2.13 6.6,-3.963 10,-5.5 z"
       id="path28" />
  </g>
  <g
     id="g30"
     style="display:inline"
     transform="translate(-438.50667,-204.32065)">
    <path
       style="opacity:1"
       fill="#f0f1f0"
       d="m 574.5,421.5 c 14.059,-0.459 22.893,6.208 26.5,20 4.013,14.173 2.68,27.84 -4,41 -9.561,13.32 -20.228,14.32 -32,3 -10.881,-18.17 -11.214,-36.504 -1,-55 3.103,-3.614 6.603,-6.614 10.5,-9 z"
       id="path30" />
  </g>
  <g
     id="g31"
     style="display:inline"
     transform="translate(-438.50667,-204.32065)">
    <path
       style="opacity:1"
       fill="#201f20"
       d="m 581.5,448.5 c 5.181,0.35 7.848,3.183 8,8.5 -0.142,4.473 -2.142,7.639 -6,9.5 -2.604,-0.769 -4.438,-2.436 -5.5,-5 -1.461,-5.174 -0.294,-9.507 3.5,-13 z"
       id="path31" />
  </g>
  <g
     id="g32"
     style="display:inline"
     transform="translate(-438.50667,-204.32065)">
    <path
       style="opacity:1"
       fill="#201f20"
       d="m 895.5,452.5 c 26.685,-3.098 51.352,2.402 74,16.5 1.196,0.654 1.196,1.154 0,1.5 -6.688,-2.895 -13.688,-4.729 -21,-5.5 -20.263,-2.422 -39.93,-0.088 -59,7 -17.764,8.549 -35.764,16.549 -54,24 -23.227,4.461 -46.56,7.794 -70,10 32.251,-13.751 64.251,-28.085 96,-43 11.07,-4.761 22.403,-8.261 34,-10.5 z"
       id="path32" />
  </g>
  <g
     id="g33"
     style="display:inline"
     transform="translate(-438.50667,-204.32065)">
    <path
       style="opacity:1"
       fill="#232222"
       d="m 576.5,427.5 c 4.877,-0.688 9.21,0.479 13,3.5 3.729,4.612 5.896,9.778 6.5,15.5 -2.685,-8.753 -8.519,-12.586 -17.5,-11.5 -4.428,3.092 -7.261,7.259 -8.5,12.5 -1.608,9.805 -0.274,19.138 4,28 8.593,8.582 15.593,7.249 21,-4 0.654,-1.196 1.154,-1.196 1.5,0 -2.355,5.899 -6.022,10.732 -11,14.5 -9.121,2.212 -15.621,-0.955 -19.5,-9.5 -6.704,-14.918 -5.704,-29.252 3,-43 2.114,-2.621 4.614,-4.621 7.5,-6 z"
       id="path33" />
  </g>
  <g
     id="g35"
     style="display:inline"
     transform="translate(-438.50667,-204.32065)">
    <path
       style="opacity:1"
       fill="#1f1e1e"
       d="m 906.5,491.5 c -19.495,15.243 -41.495,25.409 -66,30.5 -26.62,2.331 -53.286,3.998 -80,5 -9.283,1.071 -18.283,3.238 -27,6.5 8.605,-6.655 18.605,-11.988 30,-16 19.786,-3.921 39.786,-6.421 60,-7.5 33.195,-3.547 64.195,-13.714 93,-30.5 0.333,0.167 0.667,0.333 1,0.5 -3.87,3.702 -7.537,7.536 -11,11.5 z"
       id="path35" />
  </g>
  <g
     id="g37"
     style="display:inline"
     transform="translate(-438.50667,-204.32065)">
    <path
       style="opacity:1"
       fill="#1f1e1e"
       d="m 503.5,497.5 c 8.59,7.743 17.923,14.576 28,20.5 46.557,23.458 94.224,25.791 143,7 20.914,-9.791 41.581,-20.124 62,-31 11.435,-4.867 23.102,-9.034 35,-12.5 9.536,-2.423 19.202,-4.089 29,-5 2.235,-0.295 4.235,0.039 6,1 -24.826,7.914 -47.826,19.247 -69,34 -14.634,9.989 -29.634,19.489 -45,28.5 -33.761,18.239 -69.761,25.406 -108,21.5 -60.219,-10.723 -104.052,-43.39 -131.5,-98 -22.477,-53.273 -18.81,-104.607 11,-154 -24.275,60.188 -17.275,116.521 21,169 5.671,6.837 11.838,13.171 18.5,19 z"
       id="path37" />
  </g>
</svg>
